<svg width="66" height="66" viewBox="0 0 66 66" fill="none" xmlns="http://www.w3.org/2000/svg">
<path d="M40.6455 32.9997L63.9371 9.7622C64.9571 8.74222 65.5301 7.35884 65.5301 5.91637C65.5301 4.4739 64.9571 3.09051 63.9371 2.07054C62.9172 1.05056 61.5338 0.477539 60.0913 0.477539C58.6488 0.477539 57.2655 1.05056 56.2455 2.07054L33.008 25.3622L9.77047 2.07054C8.75049 1.05056 7.3671 0.477539 5.92464 0.477539C4.48217 0.477539 3.09878 1.05056 2.0788 2.07054C1.05882 3.09051 0.485807 4.4739 0.485807 5.91637C0.485807 7.35884 1.05882 8.74222 2.0788 9.7622L25.3705 32.9997L2.0788 56.2372C1.57111 56.7408 1.16814 57.3398 0.893143 57.9999C0.618146 58.66 0.476562 59.368 0.476562 60.083C0.476562 60.7981 0.618146 61.5061 0.893143 62.1662C1.16814 62.8262 1.57111 63.4253 2.0788 63.9289C2.58235 64.4366 3.18144 64.8395 3.84151 65.1145C4.50158 65.3895 5.20957 65.5311 5.92464 65.5311C6.6397 65.5311 7.34769 65.3895 8.00776 65.1145C8.66783 64.8395 9.26692 64.4366 9.77047 63.9289L33.008 40.6372L56.2455 63.9289C56.749 64.4366 57.3481 64.8395 58.0082 65.1145C58.6683 65.3895 59.3762 65.5311 60.0913 65.5311C60.8064 65.5311 61.5144 65.3895 62.1744 65.1145C62.8345 64.8395 63.4336 64.4366 63.9371 63.9289C64.4448 63.4253 64.8478 62.8262 65.1228 62.1662C65.3978 61.5061 65.5394 60.7981 65.5394 60.083C65.5394 59.368 65.3978 58.66 65.1228 57.9999C64.8478 57.3398 64.4448 56.7408 63.9371 56.2372L40.6455 32.9997Z" fill="black"/>
</svg>
